<?xml version="1.0" encoding="UTF-8" standalone="no"?>
<svg
   xmlns:dc="http://purl.org/dc/elements/1.1/"
   xmlns:cc="http://creativecommons.org/ns#"
   xmlns:rdf="http://www.w3.org/1999/02/22-rdf-syntax-ns#"
   xmlns:svg="http://www.w3.org/2000/svg"
   xmlns="http://www.w3.org/2000/svg"
   viewBox="0 0 181.65334 250.61333"
   height="250.61333"
   width="181.65334"
   xml:space="preserve"
   id="svg2"
   version="1.1"><metadata
     id="metadata8"><rdf:RDF><cc:Work
         rdf:about=""><dc:format>image/svg+xml</dc:format><dc:type
           rdf:resource="http://purl.org/dc/dcmitype/StillImage" /></cc:Work></rdf:RDF></metadata><defs
     id="defs6" /><g
     transform="matrix(1.3333333,0,0,-1.3333333,0,250.61333)"
     id="g10"><g
       transform="scale(0.1)"
       id="g12"><path
         id="path14"
         style="fill:#ffffff;fill-opacity:1;fill-rule:nonzero;stroke:none"
         d="m 1308.95,328.711 v -98.07 L 1183.3,385.648 h -56.68 v -10 l 16.13,-3.707 c 9.6,-2.132 10.65,-2.132 10.65,-7.589 V 229.301 c 0,-9.68 -1.05,-27.121 -1.73,-35.012 -0.65,-6.168 -2.02,-7.551 -6.25,-8.187 l -20.85,-3.473 v -9.598 h 81.02 v 9.598 l -28.13,4.109 c -3.8,0.75 -5.53,2.742 -6.22,7.551 -1,9.93 -1.69,25.332 -1.69,35.32 v 121.032 l 147.61,-181.743 h 7.67 v 160.114 c 0,12.449 0.67,26.758 0.96,35.738 0.44,6.48 3.8,7.191 7.24,7.871 l 20.61,3.379 v 9.648 h -81.03 V 376 l 28.86,-4.059 c 4.12,-0.711 5.5,-2.132 6.15,-8.23 0.63,-7.551 1.33,-21.961 1.33,-35 m -192.38,-46.652 c 0,60.75 -46.66,109.07 -111.66,109.07 -64.519,0 -111.226,-48.688 -111.226,-109.07 0,-61.391 46.707,-113.457 111.226,-113.457 65.35,0 111.66,52.418 111.66,113.457 m -40.18,0 c 0,-52.071 -20.6,-100.797 -71.48,-100.797 -50.777,0 -70.738,45.886 -70.738,100.797 0,51.421 20.301,96.679 70.738,96.679 51.55,0 71.48,-45.879 71.48,-96.679 m -223.663,32.64 h 9.277 l -4.074,74.051 h -7.246 l -6.563,-8.949 c -9.219,4.519 -25.383,11.328 -58.359,11.328 -74.199,0 -123.684,-46 -123.684,-107.707 0,-62.051 42.949,-113.813 110.317,-113.813 37.363,0 73.14,9.602 88.933,18.141 l -1.687,6.539 v 63.473 c 0,6.797 2.363,8.527 8.914,11.316 l 5.793,2.352 v 7.879 h -82.395 v -9.207 l 24.395,-5.864 c 7.175,-1.707 8.586,-3.34 8.586,-8.168 v -61.05 c -8.586,-8.282 -28.528,-14.059 -46.008,-14.059 -41.563,0 -76.321,37.328 -76.321,104.519 0,53.559 27.512,93.989 82.141,93.989 26.758,0 42.891,-8.598 51.172,-15.758 6.086,-9.609 14.043,-33.941 16.809,-49.012 M 602.246,385.648 H 465.195 v -10 l 20.266,-4.07 c 7.891,-1.328 8.902,-2.359 8.902,-7.226 V 193.949 c 0,-4.808 -1.011,-5.461 -9.258,-6.808 l -19.91,-4.192 v -9.918 h 169.66 l 9.93,66.848 h -9.258 c -4.453,-15.43 -13.039,-35.66 -20.3,-44.199 -9.563,-7.192 -31.555,-10.61 -44.946,-10.61 h -7.937 c -14.348,0 -24.336,1.399 -31.946,2.418 v 89.461 h 41.243 c 9.953,-6.847 15.754,-18.859 18.906,-32.937 h 6.914 v 78.207 h -6.914 c -1.668,-10.641 -9.317,-25.739 -18.906,-31.578 h -41.243 v 80.589 c 7.247,1.391 18.497,2.059 26.836,2.059 h 3.118 c 20.878,0 42.558,-5.461 50.156,-10.23 6.465,-8.957 11.98,-26.11 16.113,-41.879 h 9.258 l -6.152,68.281 c -5.184,-1.731 -17.864,-3.813 -27.481,-3.813 M 401.105,173.031 h 52.208 v 9.598 l -20.61,5.492 c -7.223,4.438 -13.98,11.649 -21.59,23.309 l -21.277,32.582 c -11.027,17.508 -16.145,24.34 -22.734,28.476 29.238,6.153 54.656,29.524 54.656,57.282 0,37.351 -35.059,55.878 -81.426,55.878 H 240.73 v -9.269 l 20.293,-4.438 c 6.465,-1.371 8.848,-2.132 8.848,-7.589 V 193.949 c 0,-4.808 -0.992,-5.121 -9.219,-6.808 l -19.922,-4.192 v -9.918 h 94.125 v 9.598 l -20.507,4.109 c -7.309,1.383 -8.364,2.09 -8.364,7.211 v 71.34 h 33.332 l 32.305,-54.18 c 10.625,-17.461 21.973,-33.23 29.484,-38.078 m -68.671,105.258 h -26.45 v 92.281 c 5.207,1.371 15.137,3.41 21.02,3.41 h 7.851 c 34,0 49.852,-14.769 49.852,-45.269 0,-31.531 -16.863,-50.422 -52.273,-50.422 M 8.75,282.059 c 0,-61.391 46.7383,-113.457 111.27,-113.457 65.332,0 111.66,52.418 111.66,113.457 0,60.75 -46.707,109.07 -111.66,109.07 -64.5317,0 -111.27,-48.688 -111.27,-109.07 m 40.5664,0 c 0,51.421 20.2227,96.679 70.7036,96.679 51.601,0 71.472,-45.879 71.472,-96.679 0,-52.071 -20.625,-100.797 -71.472,-100.797 -50.7817,0 -70.7036,45.886 -70.7036,100.797" /><path
         id="path16"
         style="fill:#ffffff;fill-opacity:1;fill-rule:nonzero;stroke:none"
         d="m 1352.52,516.672 -2.84,31.269 -0.07,0.321 -0.79,-0.192 c -2.91,-0.922 -9.71,-1.64 -15.79,-1.64 h -56.7 v -5.668 l 10.19,-2 c 3.44,-0.731 3.44,-0.813 3.44,-2.391 v -75.152 c 0,-1.598 0,-1.688 -3.6,-2.418 l -8.65,-1.852 -0.18,-0.078 v -5.57 h 47.18 v 5.57 l -12.83,2.578 -0.88,0.172 c -2.33,0.379 -2.33,0.379 -2.33,1.91 v 34.117 h 17.1 c 2.91,-2.828 6.12,-10.847 7.2,-15.378 l 0.1,-0.5 h 4.66 v 36.98 h -4.7 l -0.06,-0.551 c -0.59,-4.301 -4.13,-10.847 -7.18,-13.328 h -17.12 v 35.551 c 3.04,0.75 7.02,1.219 9.78,1.219 h 1.5 c 7.97,0 16.29,-2.243 19.69,-4.403 2.71,-3.539 5.61,-10.66 7.41,-18.117 l 0.16,-0.449 z m -103.09,-16.641 c 0,27.66 -21.22,48.52 -49.42,48.77 v 0 h -0.65 c -28.2,-0.25 -49.49,-21.11 -49.49,-48.77 0,-24.812 18.61,-50.531 49.71,-50.703 h 0.19 c 31.12,0.172 49.66,25.891 49.66,50.703 m -49.72,-43.73 c -21.59,0.078 -29.24,23.578 -29.24,43.73 0,11.438 2.35,21.68 6.59,28.899 5.11,8.699 12.73,13.129 22.65,13.172 9.86,-0.043 17.49,-4.473 22.58,-13.172 4.27,-7.258 6.59,-17.461 6.59,-28.899 0,-20.152 -7.67,-43.652 -29.17,-43.73 m -126.7,83.211 4.92,1.289 v 5.629 h -30.64 v -5.668 l 7.28,-1.422 c 1.76,-0.32 3.43,-0.781 3.69,-1.27 0.08,-0.199 0.08,-0.711 -0.51,-1.699 l -20.55,-34.93 -23.05,35.45 c -0.51,0.789 -0.47,1.058 -0.47,1.179 0.12,0.289 1.22,0.489 2.12,0.731 l 7.71,1.828 0.18,0.101 v 5.7 h -39.042 v -5.7 l 4.661,-1.64 c 2.007,-0.731 2.5,-1.219 3.945,-3.379 l 29.406,-45.09 v -29.09 c 0,-1.261 -0.36,-1.769 -3.59,-2.383 l -10.42,-2.199 -0.2,-0.078 v -5.57 h 47.18 v 5.57 l -10.82,2.277 c -3.39,0.692 -3.39,0.731 -3.39,2.383 v 31.949 l 26.69,42.571 c 1.46,2.371 2.58,2.84 4.9,3.461 m -118.655,-22.66 h 5.469 l -1.14,31.367 v 0.332 l -0.891,-0.371 c -1.992,-0.989 -8.816,-1.75 -12.129,-1.75 h -60.129 c -5.547,0 -10.801,0.718 -13.711,1.871 l -0.886,0.347 -1.083,-31.449 -0.042,-0.269 h 5.355 l 0.074,0.57 c 1.469,6.102 4.321,14.629 7.141,18.871 2.754,1.66 9.57,3.41 18.254,3.41 h 4.676 v -78.562 c 0,-1.52 0,-1.52 -3.106,-2.18 l -10.477,-2.09 -0.187,-0.078 v -5.57 h 46.594 v 5.57 l -10.539,2.129 -0.371,0.09 c -3.028,0.609 -3.028,0.609 -3.028,2.129 v 78.562 h 6.145 c 7.207,0 11.621,-0.551 16.824,-3.601 2.629,-4.282 5.84,-12.668 7.102,-18.821 z M 798.379,451.301 h 43.738 v 5.57 l -9.012,1.93 c -3.417,0.73 -3.417,0.82 -3.417,2.418 v 75.152 c 0,1.539 0,1.578 3.625,2.391 l 8.652,2 0.152,0.039 v 5.629 h -43.738 v -5.629 l 9.031,-2.039 c 3.403,-0.731 3.403,-0.813 3.403,-2.391 v -75.152 c 0,-1.598 0,-1.688 -3.547,-2.418 l -8.661,-1.852 -0.226,-0.078 z m -76.277,76.41 c 0,8.699 6.14,14.84 14.961,14.84 7.585,0 12.3,-3.723 16.23,-7.61 2.547,-3.851 5.203,-11.152 6.441,-17.269 l 0.071,-0.582 h 5.691 l -1.016,30.68 v 0.3 h -4.167 l -3.008,-4.179 c -6.082,3.3 -12.657,4.91 -20.086,4.91 -18.989,0 -32.778,-10.852 -32.778,-25.762 0,-12.508 6.821,-20.937 22.075,-27.211 l 9.5,-3.887 c 7.429,-3.152 14.304,-7.48 14.304,-18.203 0,-10.949 -7.168,-17.816 -18.738,-17.816 -8.937,0 -13.633,4.449 -16.641,8.297 -2.949,5.691 -4.785,14.051 -6.046,20.711 l -0.04,0.531 h -5.964 l 0.129,-2.832 c 0.054,-2.891 0.093,-5.981 0.203,-9.059 0.324,-9.031 0.672,-19.242 0.3,-23.359 l -0.039,-0.711 h 4.399 l 2.461,4.34 c 6.328,-2.891 13.855,-4.34 22.926,-4.34 21.449,0 35.753,11.52 35.753,28.609 0,14.993 -10.097,21.891 -21.085,27.071 l -13.817,6.519 c -8.625,4.11 -12.019,8.629 -12.019,16.012 m -72.063,-76.332 25.164,-0.078 v 5.551 l -8.711,2.378 c -3.289,2.141 -6.121,5.211 -9.09,10.051 l -8.808,14.078 c -4.153,6.45 -7.024,10.051 -9.727,12.129 11.738,3.071 23.438,12.692 23.438,25.59 0,15.633 -13.992,25.352 -36.543,25.352 H 581.348 V 541 l 8.996,-2.109 c 3.433,-0.762 3.433,-0.942 3.433,-2.52 v -75.152 c 0,-1.598 0,-1.688 -3.582,-2.418 l -8.679,-1.852 -0.168,-0.078 v -5.57 h 43.562 v 5.57 l -9.097,1.93 c -3.137,0.57 -3.137,0.82 -3.137,2.57 v 30.609 h 10.437 l 13.899,-23.57 c 5.539,-9.32 9.89,-15.039 12.961,-16.988 z m -29.101,47.641 h -8.262 v 39.539 c 1.465,0.421 5.09,1.382 7.656,1.382 h 2.52 c 13.757,0 20.488,-6.312 20.488,-19.293 0,-14.136 -7.813,-21.628 -22.402,-21.628 M 502.93,458.941 v 38.2 h 15.879 c 3.945,-2.782 6.836,-7.621 8.211,-14.012 l 0.109,-0.5 h 4.25 v 35.902 h -4.27 l -0.089,-0.562 c -0.711,-4.438 -4.149,-10.91 -8.192,-13.449 H 502.93 v 34.281 c 2.871,0.539 6.269,0.84 9.773,0.84 h 1.34 c 8.867,0 17.781,-2.243 21.238,-4.403 2.551,-3.34 5.215,-9.949 7.348,-18.117 l 0.184,-0.449 h 5.292 l -2.832,31.269 v 0.36 l -0.847,-0.231 c -2.309,-0.8 -7.883,-1.64 -11.867,-1.64 h -60.957 v -5.668 l 8.972,-1.871 c 3.418,-0.762 3.418,-0.942 3.418,-2.52 v -75.152 c 0,-1.598 0,-1.688 -3.543,-2.418 l -8.703,-1.852 -0.144,-0.078 v -5.57 h 75.871 l 4.578,30.539 0.019,0.262 h -5.351 l -0.125,-0.473 c -2.074,-7.117 -6.125,-15.68 -9.028,-19.141 -4.199,-3.148 -13.679,-4.539 -19.109,-4.539 h -3.516 c -5.351,0 -8.281,0.43 -11.132,0.813 z m -58.106,81.821 0.164,0.117 v 5.551 h -29.761 v -5.629 l 7.644,-1.75 c 1.145,-0.25 2.609,-0.629 2.871,-1.102 0.078,-0.23 0,-0.73 -0.304,-1.508 L 400.73,473.16 376.34,536.051 c -0.383,0.84 -0.449,1.429 -0.246,1.75 0.246,0.488 1.125,0.758 2.492,1.09 l 8.25,1.738 0.144,0.101 v 5.7 h -39 v -5.7 l 4.5,-1.5 0.215,-0.101 c 1.914,-0.649 3.172,-1.059 3.926,-3.207 l 33.906,-86.133 0.098,-0.117 h 8.098 l 36.804,86.25 c 0.957,2.289 2.078,2.609 3.582,3.098 z M 277.598,451.301 h 43.75 v 5.57 l -8.993,1.93 c -3.417,0.73 -3.417,0.82 -3.417,2.418 v 75.152 c 0,1.5 0,1.578 3.582,2.391 l 8.703,2 0.125,0.039 v 5.629 h -43.75 v -5.629 l 9.062,-2.039 c 3.418,-0.731 3.418,-0.813 3.418,-2.391 v -75.152 c 0,-1.598 0,-1.688 -3.625,-2.418 l -8.609,-1.852 -0.246,-0.078 z m -39.024,87.89 9.5,1.571 v 5.668 h -37.371 v -5.668 l 12.805,-1.871 c 1.504,-0.231 2.156,-1.09 2.312,-3.063 0.41,-3.008 0.938,-8.808 0.938,-15.5 v -39.816 l -52.598,65.617 -0.246,0.301 h -27.281 v -5.7 l 7.937,-1.839 0.618,-0.129 c 3.191,-0.813 3.25,-0.813 3.25,-2.582 v -59.25 c 0,-3.989 -0.391,-8.692 -0.672,-12.129 l -0.227,-3.84 c -0.305,-1.731 -0.566,-2.199 -2.195,-2.461 l -9.621,-1.629 v -5.57 h 37.336 v 5.609 l -12.844,1.891 c -1.582,0.289 -1.895,0.73 -2.156,2.527 -0.344,2.891 -0.891,10.07 -0.891,15.774 v 49.957 l 62.012,-77.289 0.183,-0.27 h 5.942 v 71.148 c 0,4.75 0.32,9.063 0.547,12.172 v 0.391 c 0.066,0.848 0.105,1.617 0.203,2.277 l 0.039,0.883 c 0,2.109 0.793,2.52 2.48,2.82 m -121.886,1.571 0.175,0.039 v 5.629 H 84.2383 v -5.668 l 10.0078,-2 c 2.9727,-0.633 2.9727,-1.082 2.9727,-2.391 V 488.43 c 0,-19.309 -9.4649,-30.36 -25.9883,-30.36 -14.3164,0 -22.7813,10.879 -22.7813,28.989 v 49.121 c 0,1.73 0.0781,2.179 2.7617,2.711 l 9.2774,1.839 0.207,0.032 v 5.668 H 18.9258 v -5.629 l 7.7734,-1.75 c 2.7071,-0.571 2.8399,-1.141 2.8399,-2.68 v -49.312 c 0,-23.571 14.7578,-37.731 39.5625,-37.731 23.5742,0 37.6174,14.621 37.6174,39.102 v 47.941 c 0,1.43 0,1.988 3.008,2.68 l 6.961,1.711" /><path
         id="path18"
         style="fill:#ffffff;fill-opacity:1;fill-rule:nonzero;stroke:none"
         d="m 959.68,1555.03 c -2.825,50.67 -8.215,104.6 -36.567,145.41 -55.8,80.1 -150.254,113.02 -241.785,112.24 -91.719,-0.79 -186.211,-32.14 -241.726,-112.24 -28.372,-40.81 -33.879,-94.74 -36.653,-145.41 -2.011,-37.3 -3.418,-82.69 -3.574,-128.67 -0.227,-46.01 1.145,-91.46 2.969,-128.63 2.949,-50.85 8.886,-104.54 37.258,-145.52 55.515,-80.08 149.8,-111.47 241.726,-112.22 91.758,-0.82 185.985,32.14 241.785,112.22 28.352,40.98 34.172,94.67 36.836,145.52 2.071,37.17 1.457,81.85 1.543,127.84 0.024,46.08 0.156,92.16 -1.812,129.46 m 262.83,-278.66 C 1203.88,1157.89 1105.1,1070.45 991.133,1026.78 896.816,990.488 789.219,972.988 681.328,973.105 573.84,973.27 465.781,990.488 371.395,1026.78 c -114.098,43.67 -212.84,131.11 -231.356,249.59 -7.305,46.23 -12.363,96.76 -12.156,149.99 0.281,53.18 4.851,103.74 12.156,150.09 18.516,118.41 117.258,205.72 231.356,249.57 94.386,36.13 202.445,53.34 309.933,53.54 107.891,0.07 215.488,-17.41 309.805,-53.54 113.967,-43.85 212.747,-131.16 231.377,-249.57 7.19,-46.35 12,-96.91 12,-150.09 0,-53.31 -4.81,-103.76 -12,-149.99" /><path
         id="path20"
         style="fill:#ffffff;fill-opacity:1;fill-rule:nonzero;stroke:none"
         d="m 0,712.148 v 6.872 h 1362.41 v -6.872 H 0" /><path
         id="path22"
         style="fill:#ffffff;fill-opacity:1;fill-rule:nonzero;stroke:none"
         d="M 0,0 V 6.87109 H 1362.41 V 0 H 0" /></g></g></svg>