<?xml version="1.0" encoding="UTF-8" standalone="no"?>
<svg
   xmlns:dc="http://purl.org/dc/elements/1.1/"
   xmlns:cc="http://creativecommons.org/ns#"
   xmlns:rdf="http://www.w3.org/1999/02/22-rdf-syntax-ns#"
   xmlns:svg="http://www.w3.org/2000/svg"
   xmlns="http://www.w3.org/2000/svg"
   viewBox="0 0 287.86667 59.346668"
   height="59.346668"
   width="287.86667"
   xml:space="preserve"
   id="svg2"
   version="1.1"><metadata
     id="metadata8"><rdf:RDF><cc:Work
         rdf:about=""><dc:format>image/svg+xml</dc:format><dc:type
           rdf:resource="http://purl.org/dc/dcmitype/StillImage" /></cc:Work></rdf:RDF></metadata><defs
     id="defs6" /><g
     transform="matrix(1.3333333,0,0,-1.3333333,0,59.346667)"
     id="g10"><g
       transform="scale(0.1)"
       id="g12"><path
         id="path14"
         style="fill:#ffffff;fill-opacity:1;fill-rule:nonzero;stroke:none"
         d="m 688.082,0 h -6.68 v 445.078 h 6.68 V 0" /><path
         id="path16"
         style="fill:#ffffff;fill-opacity:1;fill-rule:nonzero;stroke:none"
         d="M 2115.24,193.523 V 97.5391 L 1992.22,249.246 h -55.49 v -9.781 l 15.79,-3.656 c 9.44,-2.032 10.46,-2.032 10.46,-7.411 V 96.2227 c 0,-9.4375 -1.02,-26.543 -1.66,-34.25 -0.68,-6.0352 -2.05,-7.3829 -6.1,-8 l -20.42,-3.4258 v -9.375 h 79.26 v 9.375 l -27.55,4.0429 c -3.69,0.7305 -5.36,2.6836 -6.09,7.3829 -0.97,9.7265 -1.62,24.8125 -1.62,34.5429 V 214.988 L 2123.3,37.0977 h 7.44 V 193.816 c 0,12.168 0.64,26.204 0.99,34.973 0.35,6.367 3.69,7.02 7.03,7.695 l 20.2,3.321 v 9.441 h -79.32 v -9.441 l 28.25,-3.996 c 4.01,-0.653 5.39,-2.032 6,-8.067 0.66,-7.359 1.35,-21.48 1.35,-34.219 m -188.29,-45.652 c 0,59.442 -45.7,106.746 -109.28,106.746 -63.13,0 -108.87,-47.652 -108.87,-106.746 0,-60.0897 45.74,-111.0351 108.87,-111.0351 63.93,0 109.28,51.3008 109.28,111.0351 m -39.35,0 c 0,-50.9765 -20.15,-98.6601 -69.93,-98.6601 -49.69,0 -69.22,44.9375 -69.22,98.6601 0,50.359 19.86,94.629 69.22,94.629 50.45,0 69.93,-44.941 69.93,-94.629 m -218.9,31.934 h 9.08 l -3.98,72.422 h -7.1 l -6.39,-8.719 c -9.05,4.39 -24.84,11.109 -57.12,11.109 -72.66,0 -121.06,-45.019 -121.06,-105.398 0,-60.7346 42.04,-111.3987 107.92,-111.3987 36.62,0 71.62,9.3867 87.11,17.793 l -1.7,6.3594 v 62.1093 c 0,6.68 2.32,8.367 8.73,11.074 l 5.69,2.344 v 7.676 h -80.69 v -9.016 l 23.91,-5.722 c 7.03,-1.668 8.41,-3.309 8.41,-8.028 V 62.6758 c -8.41,-8.086 -27.92,-13.7695 -45.03,-13.7695 -40.68,0 -74.68,36.5625 -74.68,102.3317 0,52.383 26.93,91.946 80.36,91.946 26.22,0 42,-8.399 50.1,-15.442 6.01,-9.375 13.77,-33.172 16.44,-47.937 m -245.13,69.441 h -134.16 v -9.781 l 19.86,-3.996 c 7.72,-1.336 8.68,-2.332 8.68,-7.071 V 61.6211 c 0,-4.6875 -0.96,-5.332 -9.03,-6.6719 l -19.51,-4.0586 v -9.7187 h 166.07 l 9.72,65.4491 h -9.05 c -4.37,-15.1171 -12.78,-34.9218 -19.9,-43.2929 -9.37,-7.039 -30.87,-10.4062 -43.97,-10.4062 h -7.76 c -14.07,0 -23.82,1.3437 -31.28,2.3984 v 87.5117 h 40.36 c 9.77,-6.672 15.47,-18.457 18.51,-32.195 h 6.74 v 76.551 h -6.74 c -1.65,-10.442 -9.09,-25.196 -18.51,-30.911 h -40.36 v 78.879 c 7.11,1.328 18.12,1.942 26.25,1.942 h 3.06 c 20.47,0 41.66,-5.301 49.08,-10 6.35,-8.731 11.74,-25.496 15.82,-40.965 h 9.03 l -6.06,66.805 c -5.02,-1.668 -17.45,-3.692 -26.85,-3.692 M 1226.72,41.1719 h 51.13 v 9.375 l -20.19,5.3906 c -7.08,4.3672 -13.71,11.4141 -21.12,22.8242 l -20.86,31.8753 c -10.78,17.136 -15.8,23.816 -22.24,27.859 28.6,6.047 53.5,28.887 53.5,56.074 0,36.524 -34.34,54.676 -79.7,54.676 h -97.48 v -9.07 l 19.86,-4.367 c 6.34,-1.297 8.69,-2.032 8.69,-7.411 V 61.6211 c 0,-4.6875 -1.01,-5.0391 -9.04,-6.6719 l -19.51,-4.0586 v -9.7187 h 92.13 v 9.375 l -20.13,4.0429 c -7.12,1.3477 -8.13,1.9922 -8.13,7.0313 v 69.8129 h 32.62 l 31.62,-52.9965 c 10.39,-17.0977 21.5,-32.5703 28.85,-37.2656 m -67.2,103.0161 h -25.89 v 90.324 c 5.06,1.297 14.81,3.308 20.54,3.308 h 7.72 c 33.26,0 48.73,-14.429 48.73,-44.297 0,-30.855 -16.47,-49.335 -51.1,-49.335 m -316.77,3.683 c 0,-60.0897 45.742,-111.0351 108.895,-111.0351 63.895,0 109.255,51.3008 109.255,111.0351 0,59.442 -45.75,106.746 -109.255,106.746 -63.153,0 -108.895,-47.652 -108.895,-106.746 m 39.637,0 c 0,50.359 19.836,94.629 69.258,94.629 50.465,0 69.965,-44.941 69.965,-94.629 0,-50.9765 -20.21,-98.6601 -69.965,-98.6601 -49.696,0 -69.258,44.9375 -69.258,98.6601" /><path
         id="path18"
         style="fill:#ffffff;fill-opacity:1;fill-rule:nonzero;stroke:none"
         d="m 2157.84,377.461 -2.76,30.613 -0.05,0.305 -0.78,-0.227 c -2.86,-0.879 -9.54,-1.57 -15.49,-1.57 h -55.48 v -5.5 l 9.99,-2 c 3.34,-0.723 3.34,-0.754 3.34,-2.316 v -73.582 c 0,-1.563 0,-1.614 -3.49,-2.336 l -8.46,-1.817 -0.18,-0.058 v -5.45 h 46.17 v 5.45 l -12.54,2.492 -0.89,0.156 c -2.3,0.399 -2.3,0.399 -2.3,1.875 v 33.426 h 16.78 c 2.85,-2.82 5.95,-10.664 7.01,-15.086 l 0.14,-0.481 h 4.57 v 36.184 h -4.66 l -0.05,-0.519 c -0.56,-4.219 -4.02,-10.653 -6.98,-13.067 h -16.81 v 34.797 c 2.99,0.723 6.91,1.191 9.59,1.191 h 1.48 c 7.79,0 15.9,-2.16 19.28,-4.269 2.65,-3.484 5.51,-10.449 7.23,-17.715 l 0.12,-0.496 z M 2057,361.219 c 0,27.023 -20.79,47.453 -48.4,47.676 v 0.011 l -0.68,-0.011 c -27.59,-0.223 -48.36,-20.653 -48.36,-47.676 0,-24.285 18.17,-49.473 48.63,-49.637 h 0.16 c 30.48,0.164 48.65,25.352 48.65,49.637 m -48.72,-42.86 c -21.1,0.086 -28.6,23.125 -28.6,42.86 0,11.164 2.27,21.203 6.45,28.242 5.01,8.496 12.45,12.824 22.15,12.863 9.69,-0.039 17.14,-4.367 22.12,-12.863 4.16,-7.078 6.47,-17.109 6.47,-28.242 0,-19.735 -7.5,-42.774 -28.59,-42.86 m -123.96,81.473 4.78,1.27 v 5.48 h -29.93 v -5.5 l 7.05,-1.434 c 1.74,-0.332 3.36,-0.722 3.66,-1.269 0.09,-0.207 0.09,-0.656 -0.5,-1.574 l -20.1,-34.2 -22.55,34.668 c -0.54,0.762 -0.53,1.055 -0.53,1.133 0.14,0.285 1.26,0.52 2.1,0.715 l 7.56,1.824 0.17,0.032 v 5.605 h -38.19 v -5.547 l 4.57,-1.621 c 1.96,-0.723 2.43,-1.242 3.84,-3.301 L 1835.04,352 v -28.504 c 0,-1.199 -0.35,-1.738 -3.5,-2.344 l -10.26,-2.121 -0.17,-0.058 v -5.45 h 46.19 v 5.45 l -10.58,2.179 c -3.34,0.711 -3.34,0.723 -3.34,2.344 v 31.317 l 26.13,41.601 c 1.4,2.336 2.53,2.805 4.81,3.418 m -116.13,-22.207 h 5.34 l -1.12,30.723 v 0.324 l -0.87,-0.383 c -1.97,-0.937 -8.62,-1.707 -11.88,-1.707 h -58.83 c -5.39,0 -10.54,0.711 -13.44,1.844 l -0.83,0.332 -1.1,-30.731 -0.01,-0.265 h 5.22 l 0.09,0.488 c 1.43,5.996 4.22,14.316 6.95,18.496 2.69,1.613 9.39,3.359 17.91,3.359 h 4.58 v -76.921 c 0,-1.457 0,-1.457 -3.05,-2.082 l -10.28,-2.071 -0.18,-0.058 v -5.45 h 45.61 v 5.45 l -10.3,2.074 -0.41,0.094 c -2.93,0.586 -2.93,0.586 -2.93,2.043 v 76.921 h 6.03 c 7.06,0 11.34,-0.546 16.44,-3.542 2.58,-4.161 5.68,-12.415 6.94,-18.418 z m -152.64,-64.102 h 42.8 v 5.45 l -8.84,1.875 c -3.34,0.722 -3.34,0.773 -3.34,2.336 v 73.582 c 0,1.484 0,1.562 3.53,2.316 l 8.45,2 0.2,0.02 v 5.48 h -42.8 v -5.48 l 8.82,-2.02 c 3.36,-0.723 3.36,-0.754 3.36,-2.316 v -73.582 c 0,-1.563 0,-1.614 -3.51,-2.336 l -8.46,-1.817 -0.21,-0.058 z m -74.68,74.786 c 0,8.507 6.01,14.492 14.63,14.492 7.43,0 12.06,-3.621 15.93,-7.449 2.43,-3.762 5.07,-10.879 6.3,-16.907 l 0.08,-0.566 h 5.51 l -0.96,30.07 v 0.242 h -4.07 l -2.96,-4.089 c -5.95,3.25 -12.4,4.804 -19.66,4.804 -18.6,0 -32.08,-10.578 -32.08,-25.176 0,-12.296 6.68,-20.539 21.59,-26.652 l 9.32,-3.816 c 7.26,-3.059 14.01,-7.336 14.01,-17.785 0,-10.75 -7.04,-17.403 -18.35,-17.403 -8.76,0 -13.36,4.317 -16.29,8.078 -2.92,5.594 -4.69,13.758 -5.91,20.243 l -0.06,0.558 h -5.83 l 0.11,-2.805 c 0.06,-2.847 0.15,-5.855 0.26,-8.835 0.27,-8.821 0.59,-18.84 0.27,-22.872 l -0.06,-0.695 h 4.31 l 2.41,4.238 c 6.2,-2.832 13.53,-4.238 22.43,-4.238 20.97,0 35.03,11.242 35.03,28 0,14.668 -9.94,21.406 -20.67,26.512 l -13.51,6.328 c -8.47,4.043 -11.78,8.418 -11.78,15.723 m -70.52,-74.746 24.62,-0.04 v 5.411 l -8.51,2.328 c -3.22,2.066 -6.02,5.086 -8.93,9.824 l -8.58,13.777 c -4.07,6.336 -6.88,9.825 -9.55,11.922 11.51,2.981 22.94,12.403 22.94,25.012 0,15.293 -13.68,24.785 -35.76,24.785 h -43.46 v -5.293 l 8.81,-2.07 c 3.35,-0.715 3.35,-0.91 3.35,-2.453 v -73.582 c 0,-1.563 0,-1.614 -3.52,-2.336 l -8.48,-1.817 -0.16,-0.058 v -5.45 h 42.63 v 5.45 l -8.97,1.875 c -3.02,0.578 -3.02,0.8 -3.02,2.48 v 29.981 h 10.23 l 13.6,-23.067 c 5.41,-9.101 9.69,-14.726 12.65,-16.621 z m -28.52,46.671 h -8.07 v 38.672 c 1.41,0.379 5.01,1.336 7.53,1.336 h 2.49 c 13.4,0 19.98,-6.172 19.98,-18.867 0,-13.828 -7.58,-21.141 -21.93,-21.141 m -115.5,-39.296 v 37.429 h 15.59 c 3.88,-2.754 6.67,-7.5 8.03,-13.699 l 0.11,-0.52 h 4.13 v 35.157 h -4.18 l -0.06,-0.528 c -0.71,-4.375 -4.1,-10.73 -8,-13.222 h -15.62 v 33.613 c 2.87,0.488 6.18,0.773 9.61,0.773 h 1.32 c 8.69,0 17.37,-2.16 20.76,-4.269 2.5,-3.32 5.14,-9.746 7.22,-17.754 l 0.18,-0.457 h 5.15 l -2.76,30.633 v 0.332 l -0.8,-0.274 c -2.27,-0.722 -7.75,-1.57 -11.66,-1.57 h -59.66 v -5.48 l 8.8,-1.883 c 3.38,-0.715 3.38,-0.91 3.38,-2.453 v -73.582 c 0,-1.563 0,-1.614 -3.52,-2.336 l -8.46,-1.817 -0.2,-0.058 v -5.45 h 74.3 l 4.45,29.868 0.06,0.269 h -5.28 l -0.11,-0.484 c -2.04,-6.938 -6.01,-15.344 -8.82,-18.711 -4.13,-3.086 -13.45,-4.492 -18.72,-4.492 h -3.43 c -5.27,0 -8.14,0.449 -10.93,0.82 z m -56.8,80.144 0.14,0.051 v 5.449 h -29.15 v -5.48 l 7.47,-1.719 c 1.18,-0.262 2.57,-0.633 2.82,-1.074 0.11,-0.243 0.02,-0.711 -0.31,-1.454 l -24.14,-61.984 -23.88,61.543 c -0.37,0.879 -0.45,1.426 -0.26,1.719 0.26,0.508 1.1,0.773 2.44,1.086 l 8.05,1.707 0.19,0.051 v 5.605 h -38.18 v -5.566 l 4.4,-1.477 0.25,-0.105 c 1.83,-0.637 3.06,-1.036 3.82,-3.106 l 33.17,-84.285 0.06,-0.156 h 7.96 l 36.04,84.441 c 0.93,2.207 2.02,2.559 3.5,2.988 z m -163.66,-87.559 h 42.78 v 5.45 l -8.79,1.875 c -3.34,0.722 -3.34,0.773 -3.34,2.336 v 73.582 c 0,1.425 0,1.562 3.51,2.316 l 8.47,2 0.15,0.02 v 5.48 h -42.78 v -5.48 l 8.83,-2.02 c 3.33,-0.723 3.33,-0.754 3.33,-2.316 v -73.582 c 0,-1.563 0,-1.614 -3.48,-2.336 l -8.47,-1.817 -0.21,-0.058 z m -38.22,85.977 9.28,1.582 v 5.5 h -36.56 v -5.5 l 12.54,-1.863 c 1.46,-0.227 2.12,-1.086 2.26,-3.02 0.39,-2.89 0.88,-8.613 0.88,-15.117 v -39.023 l -51.46,64.277 -0.22,0.246 h -26.729 v -5.605 l 7.773,-1.758 0.617,-0.137 c 3.114,-0.754 3.203,-0.754 3.203,-2.5 v -57.98 c 0,-3.922 -0.39,-8.543 -0.644,-11.891 l -0.254,-3.742 c -0.285,-1.707 -0.559,-2.176 -2.129,-2.41 l -9.434,-1.586 v -5.45 h 36.547 v 5.493 l -12.56,1.832 c -1.565,0.293 -1.869,0.722 -2.151,2.453 -0.293,2.859 -0.851,9.875 -0.851,15.437 v 48.907 l 60.692,-75.665 0.2,-0.234 h 5.82 v 69.629 c 0,4.629 0.31,8.84 0.52,11.934 l 0.01,0.351 c 0.05,0.84 0.11,1.574 0.14,2.246 l 0.09,0.86 c 0,2.031 0.72,2.453 2.42,2.734 m -119.295,1.582 0.165,0.02 v 5.48 h -31.942 v -5.5 l 9.813,-2 c 2.941,-0.598 2.941,-1.066 2.941,-2.316 v -46.934 c 0,-18.875 -9.277,-29.715 -25.449,-29.715 -14.004,0 -22.324,10.645 -22.324,28.379 v 48.086 c 0,1.648 0.105,2.109 2.734,2.637 l 9.082,1.824 0.176,0.039 v 5.5 h -40.852 v -5.48 l 7.61,-1.719 c 2.617,-0.567 2.754,-1.074 2.754,-2.617 v -48.27 c 0,-23.113 14.453,-36.914 38.738,-36.914 23.047,0 36.789,14.324 36.789,38.25 v 46.934 c 0,1.367 0,1.925 2.949,2.617 l 6.816,1.699" /><path
         id="path20"
         style="fill:#ffffff;fill-opacity:1;fill-rule:nonzero;stroke:none"
         d="m 407.125,285.859 c -1.359,24.817 -4.004,51.219 -17.871,71.192 -27.305,39.207 -73.555,55.312 -118.371,54.941 C 226,411.59 179.73,396.258 152.555,357.051 c -13.867,-19.973 -16.563,-46.375 -17.91,-71.192 -1.008,-18.23 -1.692,-40.461 -1.758,-62.976 -0.098,-22.512 0.547,-44.77 1.472,-62.949 1.426,-24.907 4.329,-51.172 18.196,-71.2113 27.175,-39.2305 73.34,-54.5821 118.328,-54.9336 44.933,-0.4102 91.066,15.7031 118.371,54.9336 13.867,20.0393 16.699,46.3043 18.027,71.2113 1.016,18.179 0.711,40.039 0.731,62.578 0.031,22.554 0.097,45.117 -0.887,63.347 M 535.797,149.48 C 526.684,91.4727 478.316,48.6836 422.535,27.2969 376.383,9.53125 323.695,0.976563 270.883,1.02344 218.266,1.12109 165.387,9.53125 119.195,27.2969 63.3438,48.6836 14.9961,91.4727 5.93359,149.48 2.35938,172.098 -0.09375,196.824 0.00390625,222.883 0.121094,248.906 2.35938,273.66 5.93359,296.355 14.9961,354.324 63.3438,397.051 119.195,418.516 c 46.192,17.683 99.071,26.093 151.688,26.211 52.812,0.039 105.5,-8.528 151.652,-26.211 55.781,-21.465 104.149,-64.192 113.262,-122.161 3.504,-22.695 5.887,-47.449 5.887,-73.472 0,-26.098 -2.383,-50.785 -5.887,-73.403" /></g></g></svg>